<mxfile host="app.diagrams.net" agent="Mozilla/5.0 (Windows NT 10.0; Win64; x64) AppleWebKit/537.36 (KHTML, like Gecko) Chrome/131.0.0.0 Safari/537.36" version="24.8.8">
  <diagram name="Page-1" id="1kNSgYMM8WJ6UvtnYfTc">
    <mxGraphModel dx="1434" dy="746" grid="1" gridSize="10" guides="1" tooltips="1" connect="1" arrows="1" fold="1" page="1" pageScale="1" pageWidth="827" pageHeight="1169" math="0" shadow="0">
      <root>
        <mxCell id="0" />
        <mxCell id="1" parent="0" />
        <mxCell id="__bNjg24uhGLs9WBQbdl-1" value="" style="rounded=0;whiteSpace=wrap;html=1;" parent="1" vertex="1">
          <mxGeometry x="110" y="120" width="570" height="470" as="geometry" />
        </mxCell>
        <mxCell id="h5MVEyiyJESEQ6UOqvcm-9" value="" style="rounded=0;whiteSpace=wrap;html=1;" parent="1" vertex="1">
          <mxGeometry x="162.25" y="150" width="460" height="310" as="geometry" />
        </mxCell>
        <mxCell id="h5MVEyiyJESEQ6UOqvcm-1" value="" style="image;aspect=fixed;html=1;points=[];align=center;fontSize=12;image=img/lib/azure2/compute/VM_Images_Classic.svg;" parent="1" vertex="1">
          <mxGeometry x="394" y="255.23" width="53.13" height="49.27" as="geometry" />
        </mxCell>
        <mxCell id="h5MVEyiyJESEQ6UOqvcm-2" value="" style="image;html=1;image=img/lib/clip_art/computers/Server_128x128.png" parent="1" vertex="1">
          <mxGeometry x="295" y="550" width="200" height="80" as="geometry" />
        </mxCell>
        <mxCell id="__bNjg24uhGLs9WBQbdl-2" value="" style="endArrow=none;html=1;rounded=0;entryX=0.75;entryY=1;entryDx=0;entryDy=0;exitX=0.5;exitY=1;exitDx=0;exitDy=0;" parent="1" source="__bNjg24uhGLs9WBQbdl-14" target="__bNjg24uhGLs9WBQbdl-1" edge="1">
          <mxGeometry width="50" height="50" relative="1" as="geometry">
            <mxPoint x="390" y="430" as="sourcePoint" />
            <mxPoint x="440" y="380" as="targetPoint" />
            <Array as="points" />
          </mxGeometry>
        </mxCell>
        <mxCell id="h5MVEyiyJESEQ6UOqvcm-4" value="" style="image;aspect=fixed;html=1;points=[];align=center;fontSize=12;image=img/lib/azure2/networking/Virtual_Router.svg;" parent="1" vertex="1">
          <mxGeometry x="516.75" y="260" width="40" height="40" as="geometry" />
        </mxCell>
        <mxCell id="__bNjg24uhGLs9WBQbdl-5" value="" style="rounded=0;whiteSpace=wrap;html=1;" parent="1" vertex="1">
          <mxGeometry x="224.5" y="590" width="55.5" height="20" as="geometry" />
        </mxCell>
        <mxCell id="__bNjg24uhGLs9WBQbdl-6" value="" style="rounded=0;whiteSpace=wrap;html=1;" parent="1" vertex="1">
          <mxGeometry x="509" y="590" width="55.5" height="20" as="geometry" />
        </mxCell>
        <mxCell id="__bNjg24uhGLs9WBQbdl-7" value="Server1&lt;span style=&quot;color: rgba(0, 0, 0, 0); font-family: monospace; font-size: 0px; text-align: start; text-wrap-mode: nowrap;&quot;&gt;%3CmxGraphModel%3E%3Croot%3E%3CmxCell%20id%3D%220%22%2F%3E%3CmxCell%20id%3D%221%22%20parent%3D%220%22%2F%3E%3CmxCell%20id%3D%222%22%20value%3D%22VM%20pfSense%22%20style%3D%22text%3Bhtml%3D1%3Balign%3Dcenter%3BverticalAlign%3Dmiddle%3BwhiteSpace%3Dwrap%3Brounded%3D0%3B%22%20vertex%3D%221%22%20parent%3D%221%22%3E%3CmxGeometry%20x%3D%22419%22%20y%3D%22401%22%20width%3D%2260%22%20height%3D%2230%22%20as%3D%22geometry%22%2F%3E%3C%2FmxCell%3E%3C%2Froot%3E%3C%2FmxGraphModel%3E&lt;/span&gt;" style="text;html=1;align=center;verticalAlign=middle;whiteSpace=wrap;rounded=0;" parent="1" vertex="1">
          <mxGeometry x="362.25" y="630" width="60" height="30" as="geometry" />
        </mxCell>
        <mxCell id="__bNjg24uhGLs9WBQbdl-9" value="WAN" style="text;html=1;align=center;verticalAlign=middle;whiteSpace=wrap;rounded=0;" parent="1" vertex="1">
          <mxGeometry x="523.5" y="490" width="60" height="30" as="geometry" />
        </mxCell>
        <mxCell id="__bNjg24uhGLs9WBQbdl-11" value="" style="endArrow=none;dashed=1;html=1;rounded=0;exitX=0.5;exitY=1;exitDx=0;exitDy=0;" parent="1" edge="1">
          <mxGeometry width="50" height="50" relative="1" as="geometry">
            <mxPoint x="533.75" y="610" as="sourcePoint" />
            <mxPoint x="534" y="670" as="targetPoint" />
            <Array as="points" />
          </mxGeometry>
        </mxCell>
        <mxCell id="__bNjg24uhGLs9WBQbdl-10" value="Internet" style="ellipse;shape=cloud;whiteSpace=wrap;html=1;" parent="1" vertex="1">
          <mxGeometry x="473.5" y="640" width="120" height="80" as="geometry" />
        </mxCell>
        <mxCell id="__bNjg24uhGLs9WBQbdl-12" value="" style="endArrow=none;dashed=1;html=1;rounded=0;exitX=0.5;exitY=1;exitDx=0;exitDy=0;" parent="1" edge="1">
          <mxGeometry width="50" height="50" relative="1" as="geometry">
            <mxPoint x="251.75" y="610" as="sourcePoint" />
            <mxPoint x="252" y="670" as="targetPoint" />
            <Array as="points" />
          </mxGeometry>
        </mxCell>
        <mxCell id="__bNjg24uhGLs9WBQbdl-13" value="LABO" style="rounded=0;whiteSpace=wrap;html=1;" parent="1" vertex="1">
          <mxGeometry x="204" y="670" width="96" height="40" as="geometry" />
        </mxCell>
        <mxCell id="__bNjg24uhGLs9WBQbdl-14" value="WAN" style="rounded=0;whiteSpace=wrap;html=1;" parent="1" vertex="1">
          <mxGeometry x="509" y="440" width="55.5" height="20" as="geometry" />
        </mxCell>
        <mxCell id="__bNjg24uhGLs9WBQbdl-15" value="internal SWITCH&lt;div&gt;LAN&lt;/div&gt;" style="rounded=0;whiteSpace=wrap;html=1;" parent="1" vertex="1">
          <mxGeometry x="214" y="410" width="86" height="50" as="geometry" />
        </mxCell>
        <mxCell id="__bNjg24uhGLs9WBQbdl-17" value="" style="endArrow=none;html=1;rounded=0;exitX=0.5;exitY=0;exitDx=0;exitDy=0;" parent="1" source="__bNjg24uhGLs9WBQbdl-15" target="h5MVEyiyJESEQ6UOqvcm-1" edge="1">
          <mxGeometry width="50" height="50" relative="1" as="geometry">
            <mxPoint x="390" y="430" as="sourcePoint" />
            <mxPoint x="440" y="380" as="targetPoint" />
            <Array as="points">
              <mxPoint x="420" y="410" />
            </Array>
          </mxGeometry>
        </mxCell>
        <mxCell id="__bNjg24uhGLs9WBQbdl-18" value="" style="endArrow=none;html=1;rounded=0;entryX=0.951;entryY=0.525;entryDx=0;entryDy=0;entryPerimeter=0;" parent="1" source="h5MVEyiyJESEQ6UOqvcm-4" target="h5MVEyiyJESEQ6UOqvcm-1" edge="1">
          <mxGeometry width="50" height="50" relative="1" as="geometry">
            <mxPoint x="390" y="430" as="sourcePoint" />
            <mxPoint x="440" y="380" as="targetPoint" />
          </mxGeometry>
        </mxCell>
        <mxCell id="__bNjg24uhGLs9WBQbdl-19" value="" style="endArrow=none;html=1;rounded=0;entryX=0.5;entryY=0.975;entryDx=0;entryDy=0;entryPerimeter=0;exitX=0.5;exitY=0;exitDx=0;exitDy=0;" parent="1" source="__bNjg24uhGLs9WBQbdl-14" target="h5MVEyiyJESEQ6UOqvcm-4" edge="1">
          <mxGeometry width="50" height="50" relative="1" as="geometry">
            <mxPoint x="390" y="430" as="sourcePoint" />
            <mxPoint x="440" y="370" as="targetPoint" />
          </mxGeometry>
        </mxCell>
        <mxCell id="__bNjg24uhGLs9WBQbdl-25" value="" style="ellipse;whiteSpace=wrap;html=1;" parent="1" vertex="1">
          <mxGeometry x="168.45" y="170" width="201.55" height="200" as="geometry" />
        </mxCell>
        <mxCell id="__bNjg24uhGLs9WBQbdl-26" value="" style="sketch=0;points=[[0,0,0],[0.25,0,0],[0.5,0,0],[0.75,0,0],[1,0,0],[0,1,0],[0.25,1,0],[0.5,1,0],[0.75,1,0],[1,1,0],[0,0.25,0],[0,0.5,0],[0,0.75,0],[1,0.25,0],[1,0.5,0],[1,0.75,0]];outlineConnect=0;fontColor=#232F3E;fillColor=#7AA116;strokeColor=#ffffff;dashed=0;verticalLabelPosition=bottom;verticalAlign=top;align=center;html=1;fontSize=12;fontStyle=0;aspect=fixed;shape=mxgraph.aws4.resourceIcon;resIcon=mxgraph.aws4.fsx_for_windows_file_server;" parent="1" vertex="1">
          <mxGeometry x="224.5" y="240" width="34.5" height="34.5" as="geometry" />
        </mxCell>
        <mxCell id="__bNjg24uhGLs9WBQbdl-27" value="" style="image;aspect=fixed;perimeter=ellipsePerimeter;html=1;align=center;shadow=0;dashed=0;spacingTop=3;image=img/lib/active_directory/laptop_client.svg;" parent="1" vertex="1">
          <mxGeometry x="330" y="234.5" width="27" height="30" as="geometry" />
        </mxCell>
        <mxCell id="__bNjg24uhGLs9WBQbdl-28" value="" style="image;aspect=fixed;perimeter=ellipsePerimeter;html=1;align=center;shadow=0;dashed=0;spacingTop=3;image=img/lib/active_directory/laptop_client.svg;" parent="1" vertex="1">
          <mxGeometry x="295" y="190" width="27" height="30" as="geometry" />
        </mxCell>
        <mxCell id="__bNjg24uhGLs9WBQbdl-29" value="" style="image;aspect=fixed;perimeter=ellipsePerimeter;html=1;align=center;shadow=0;dashed=0;spacingTop=3;image=img/lib/active_directory/laptop_client.svg;" parent="1" vertex="1">
          <mxGeometry x="220" y="190" width="27" height="30" as="geometry" />
        </mxCell>
        <mxCell id="__bNjg24uhGLs9WBQbdl-30" value="" style="image;aspect=fixed;perimeter=ellipsePerimeter;html=1;align=center;shadow=0;dashed=0;spacingTop=3;image=img/lib/active_directory/laptop_client.svg;" parent="1" vertex="1">
          <mxGeometry x="177" y="240" width="27" height="30" as="geometry" />
        </mxCell>
        <mxCell id="__bNjg24uhGLs9WBQbdl-31" value="" style="image;aspect=fixed;perimeter=ellipsePerimeter;html=1;align=center;shadow=0;dashed=0;spacingTop=3;image=img/lib/active_directory/laptop_client.svg;" parent="1" vertex="1">
          <mxGeometry x="193" y="310" width="27" height="30" as="geometry" />
        </mxCell>
        <mxCell id="__bNjg24uhGLs9WBQbdl-32" value="" style="sketch=0;aspect=fixed;pointerEvents=1;shadow=0;dashed=0;html=1;strokeColor=none;labelPosition=center;verticalLabelPosition=bottom;verticalAlign=top;align=center;fillColor=#00188D;shape=mxgraph.mscae.enterprise.domain_controller" parent="1" vertex="1">
          <mxGeometry x="266.2" y="264.5" width="28.8" height="40" as="geometry" />
        </mxCell>
        <mxCell id="__bNjg24uhGLs9WBQbdl-33" value="" style="image;aspect=fixed;perimeter=ellipsePerimeter;html=1;align=center;shadow=0;dashed=0;spacingTop=3;image=img/lib/active_directory/laptop_client.svg;" parent="1" vertex="1">
          <mxGeometry x="320" y="290" width="27" height="30" as="geometry" />
        </mxCell>
        <mxCell id="__bNjg24uhGLs9WBQbdl-34" value="" style="image;aspect=fixed;perimeter=ellipsePerimeter;html=1;align=center;shadow=0;dashed=0;spacingTop=3;image=img/lib/active_directory/laptop_client.svg;" parent="1" vertex="1">
          <mxGeometry x="266.2" y="320" width="27" height="30" as="geometry" />
        </mxCell>
        <mxCell id="__bNjg24uhGLs9WBQbdl-35" value="" style="endArrow=none;html=1;rounded=0;entryX=0.5;entryY=1;entryDx=0;entryDy=0;exitX=0.5;exitY=0;exitDx=0;exitDy=0;" parent="1" source="__bNjg24uhGLs9WBQbdl-15" target="__bNjg24uhGLs9WBQbdl-25" edge="1">
          <mxGeometry width="50" height="50" relative="1" as="geometry">
            <mxPoint x="390" y="430" as="sourcePoint" />
            <mxPoint x="440" y="380" as="targetPoint" />
          </mxGeometry>
        </mxCell>
        <mxCell id="__bNjg24uhGLs9WBQbdl-36" value="" style="ellipse;whiteSpace=wrap;html=1;" parent="1" vertex="1">
          <mxGeometry x="443.5" y="194.5" width="80" height="40" as="geometry" />
        </mxCell>
        <mxCell id="__bNjg24uhGLs9WBQbdl-37" value="" style="endArrow=none;dashed=1;html=1;rounded=0;entryX=0.5;entryY=1;entryDx=0;entryDy=0;exitX=0.508;exitY=-0.005;exitDx=0;exitDy=0;exitPerimeter=0;" parent="1" source="h5MVEyiyJESEQ6UOqvcm-1" target="__bNjg24uhGLs9WBQbdl-36" edge="1">
          <mxGeometry width="50" height="50" relative="1" as="geometry">
            <mxPoint x="440" y="295" as="sourcePoint" />
            <mxPoint x="490" y="245" as="targetPoint" />
          </mxGeometry>
        </mxCell>
        <mxCell id="__bNjg24uhGLs9WBQbdl-38" value="" style="endArrow=none;dashed=1;html=1;rounded=0;entryX=0.5;entryY=1;entryDx=0;entryDy=0;" parent="1" target="__bNjg24uhGLs9WBQbdl-36" edge="1">
          <mxGeometry width="50" height="50" relative="1" as="geometry">
            <mxPoint x="536" y="260" as="sourcePoint" />
            <mxPoint x="480" y="240" as="targetPoint" />
          </mxGeometry>
        </mxCell>
        <mxCell id="__bNjg24uhGLs9WBQbdl-39" value="VM pfSense" style="text;html=1;align=center;verticalAlign=middle;whiteSpace=wrap;rounded=0;" parent="1" vertex="1">
          <mxGeometry x="453.5" y="198.5" width="60" height="30" as="geometry" />
        </mxCell>
      </root>
    </mxGraphModel>
  </diagram>
</mxfile>
